<?xml version="1.0" standalone="no"?>
<svg xmlns:xlink="http://www.w3.org/1999/xlink" id="wave" style="transform:rotate(180deg); transition: 0.3s" viewBox="0 0 1440 100" version="1.1" xmlns="http://www.w3.org/2000/svg"><defs><linearGradient id="sw-gradient-0" x1="0" x2="0" y1="1" y2="0"><stop stop-color="rgba(230, 230, 250, 1)" offset="0%"/><stop stop-color="rgba(230, 230, 250, 1)" offset="100%"/></linearGradient></defs><path style="transform:translate(0, 0px); opacity:1" fill="url(#sw-gradient-0)" d="M0,80L26.7,80C53.3,80,107,80,160,66.7C213.3,53,267,27,320,25C373.3,23,427,47,480,58.3C533.3,70,587,70,640,73.3C693.3,77,747,83,800,86.7C853.3,90,907,90,960,78.3C1013.3,67,1067,43,1120,38.3C1173.3,33,1227,47,1280,53.3C1333.3,60,1387,60,1440,50C1493.3,40,1547,20,1600,21.7C1653.3,23,1707,47,1760,56.7C1813.3,67,1867,63,1920,61.7C1973.3,60,2027,60,2080,60C2133.3,60,2187,60,2240,50C2293.3,40,2347,20,2400,16.7C2453.3,13,2507,27,2560,26.7C2613.3,27,2667,13,2720,11.7C2773.3,10,2827,20,2880,20C2933.3,20,2987,10,3040,13.3C3093.3,17,3147,33,3200,35C3253.3,37,3307,23,3360,23.3C3413.3,23,3467,37,3520,43.3C3573.3,50,3627,50,3680,43.3C3733.3,37,3787,23,3813,16.7L3840,10L3840,100L3813.3,100C3786.7,100,3733,100,3680,100C3626.7,100,3573,100,3520,100C3466.7,100,3413,100,3360,100C3306.7,100,3253,100,3200,100C3146.7,100,3093,100,3040,100C2986.7,100,2933,100,2880,100C2826.7,100,2773,100,2720,100C2666.7,100,2613,100,2560,100C2506.7,100,2453,100,2400,100C2346.7,100,2293,100,2240,100C2186.7,100,2133,100,2080,100C2026.7,100,1973,100,1920,100C1866.7,100,1813,100,1760,100C1706.7,100,1653,100,1600,100C1546.7,100,1493,100,1440,100C1386.7,100,1333,100,1280,100C1226.7,100,1173,100,1120,100C1066.7,100,1013,100,960,100C906.7,100,853,100,800,100C746.7,100,693,100,640,100C586.7,100,533,100,480,100C426.7,100,373,100,320,100C266.7,100,213,100,160,100C106.7,100,53,100,27,100L0,100Z"/></svg>